<svg width="99" height="25" viewBox="0 0 99 25" fill="none" xmlns="http://www.w3.org/2000/svg">
<style>
  /* Wordmark « Xeext » — suit le thème comme la navbar :
     foncé sur fond clair, clair sur fond sombre. */
  .wm { fill: #1D1D1F; }
  @media (prefers-color-scheme: dark) { .wm { fill: #F5F5F7; } }
</style>
<path class="wm" d="M21.9833 6.52838L21.3113 6.62438C19.9193 6.81638 19.1993 7.00838 18.4313 7.48838C17.7593 7.92038 15.9353 9.93638 14.8313 11.3284C14.2553 12.0964 13.9193 12.5284 13.9193 12.7684C13.9193 13.0564 14.4953 14.0164 14.9273 14.6404L18.1913 19.4884C19.8713 21.9844 20.8313 22.4644 22.4633 22.6084L22.9913 22.6564C23.3753 22.9924 23.3753 24.1444 22.8473 24.3364C20.7353 24.2404 18.8633 24.1924 17.0393 24.1924C15.1193 24.1924 12.8633 24.2404 10.6553 24.3364C10.2233 24.1444 10.1273 22.9924 10.5113 22.6564L11.5673 22.4644C12.2393 22.3204 12.3833 22.1284 12.3833 21.9364C12.3833 21.7444 12.1913 21.2644 11.8073 20.6404C11.1353 19.5844 10.5113 18.5764 9.74334 17.4724C9.07134 18.4804 8.39934 19.5844 7.77534 20.6404C7.39134 21.3124 7.19934 21.7444 7.19934 22.0324C7.19934 22.2724 7.39134 22.3684 8.06334 22.5124L8.83134 22.6564C9.21534 22.9444 9.11934 24.1444 8.73534 24.3364C7.34334 24.2404 5.90334 24.1924 4.41534 24.1924C3.31134 24.1924 2.15934 24.2404 0.671344 24.3364C0.239344 24.0964 0.0953437 23.0404 0.575344 22.6564L1.77534 22.4644C2.59134 22.3204 3.59934 21.9844 4.03134 21.5044C4.75134 20.7844 7.29534 17.4724 7.96734 16.4644C8.25534 15.9844 8.39934 15.6484 8.39934 15.4084C8.39934 15.2164 7.96734 14.5924 6.86334 12.8644L4.27134 8.88038C3.31134 7.39238 2.39934 7.00838 1.34334 6.76838L0.335344 6.52838C-0.000656292 6.28838 -0.000656292 4.99238 0.479344 4.84838C2.35134 4.94438 3.64734 4.99238 6.28734 4.99238C8.01534 4.99238 9.69534 4.94438 11.4233 4.84838C11.9993 5.04038 12.0473 6.24038 11.5193 6.52838L10.9433 6.67238C10.5593 6.72038 10.2233 6.86438 10.2233 7.00838C10.2233 7.20038 10.3193 7.44038 10.6553 8.01638C11.2793 9.07238 11.9513 9.98438 12.6233 10.9444C13.1033 10.2724 13.9193 9.12038 14.6873 7.96838C14.9753 7.53638 15.0233 7.34438 15.0233 7.10438C15.0233 6.91238 14.7353 6.81638 14.2553 6.67238L13.7273 6.52838C13.2953 6.24038 13.3913 5.04038 13.8713 4.84838C15.2633 4.94438 16.5113 4.99238 18.2393 4.99238C19.4393 4.99238 20.6873 4.94438 21.8873 4.84838C22.3673 4.99238 22.4153 6.24038 21.9833 6.52838ZM39.3252 12.8164H30.1092C29.0052 12.8164 28.9092 12.9124 28.9092 13.6804C28.9092 17.2804 31.2132 20.7844 35.6772 20.7844C37.0212 20.7844 38.8452 20.4964 40.1412 18.2884C40.6692 18.1924 41.3892 18.5764 41.3892 19.3924C39.4212 23.4724 35.8692 24.8644 32.9892 24.8644C26.5092 24.8644 23.0052 20.3044 23.0052 15.0724C23.0052 9.02438 27.3732 4.32038 33.3732 4.32038C38.3652 4.32038 41.0532 7.53638 41.0532 11.2324C41.0532 12.1444 40.8132 12.8164 39.3252 12.8164ZM31.5012 10.7044H33.2772C33.9492 10.7044 34.7172 10.6084 35.2452 10.2724C35.4852 10.1284 35.5812 9.64838 35.5812 9.16838C35.5812 7.58438 34.6692 6.52838 33.0372 6.52838C31.0212 6.52838 29.2932 8.44838 29.2932 9.98438C29.2932 10.6564 29.9652 10.7044 31.5012 10.7044ZM59.0015 12.8164H49.7855C48.6815 12.8164 48.5855 12.9124 48.5855 13.6804C48.5855 17.2804 50.8895 20.7844 55.3535 20.7844C56.6975 20.7844 58.5215 20.4964 59.8175 18.2884C60.3455 18.1924 61.0655 18.5764 61.0655 19.3924C59.0975 23.4724 55.5455 24.8644 52.6655 24.8644C46.1855 24.8644 42.6815 20.3044 42.6815 15.0724C42.6815 9.02438 47.0495 4.32038 53.0495 4.32038C58.0415 4.32038 60.7295 7.53638 60.7295 11.2324C60.7295 12.1444 60.4895 12.8164 59.0015 12.8164ZM51.1775 10.7044H52.9535C53.6255 10.7044 54.3935 10.6084 54.9215 10.2724C55.1615 10.1284 55.2575 9.64838 55.2575 9.16838C55.2575 7.58438 54.3455 6.52838 52.7135 6.52838C50.6975 6.52838 48.9695 8.44838 48.9695 9.98438C48.9695 10.6564 49.6415 10.7044 51.1775 10.7044ZM82.2777 6.52838L81.6057 6.62438C80.2137 6.81638 79.4937 7.00838 78.7257 7.48838C78.0537 7.92038 76.2297 9.93638 75.1257 11.3284C74.5497 12.0964 74.2137 12.5284 74.2137 12.7684C74.2137 13.0564 74.7897 14.0164 75.2217 14.6404L78.4857 19.4884C80.1657 21.9844 81.1257 22.4644 82.7577 22.6084L83.2857 22.6564C83.6697 22.9924 83.6697 24.1444 83.1417 24.3364C81.0297 24.2404 79.1577 24.1924 77.3337 24.1924C75.4137 24.1924 73.1577 24.2404 70.9497 24.3364C70.5177 24.1444 70.4217 22.9924 70.8057 22.6564L71.8617 22.4644C72.5337 22.3204 72.6777 22.1284 72.6777 21.9364C72.6777 21.7444 72.4857 21.2644 72.1017 20.6404C71.4297 19.5844 70.8057 18.5764 70.0377 17.4724C69.3657 18.4804 68.6937 19.5844 68.0697 20.6404C67.6857 21.3124 67.4937 21.7444 67.4937 22.0324C67.4937 22.2724 67.6857 22.3684 68.3577 22.5124L69.1257 22.6564C69.5097 22.9444 69.4137 24.1444 69.0297 24.3364C67.6377 24.2404 66.1977 24.1924 64.7097 24.1924C63.6057 24.1924 62.4537 24.2404 60.9657 24.3364C60.5337 24.0964 60.3897 23.0404 60.8697 22.6564L62.0697 22.4644C62.8857 22.3204 63.8937 21.9844 64.3257 21.5044C65.0457 20.7844 67.5897 17.4724 68.2617 16.4644C68.5497 15.9844 68.6937 15.6484 68.6937 15.4084C68.6937 15.2164 68.2617 14.5924 67.1577 12.8644L64.5657 8.88038C63.6057 7.39238 62.6937 7.00838 61.6377 6.76838L60.6297 6.52838C60.2937 6.28838 60.2937 4.99238 60.7737 4.84838C62.6457 4.94438 63.9417 4.99238 66.5817 4.99238C68.3097 4.99238 69.9897 4.94438 71.7177 4.84838C72.2937 5.04038 72.3417 6.24038 71.8137 6.52838L71.2377 6.67238C70.8537 6.72038 70.5177 6.86438 70.5177 7.00838C70.5177 7.20038 70.6137 7.44038 70.9497 8.01638C71.5737 9.07238 72.2457 9.98438 72.9177 10.9444C73.3977 10.2724 74.2137 9.12038 74.9817 7.96838C75.2697 7.53638 75.3177 7.34438 75.3177 7.10438C75.3177 6.91238 75.0297 6.81638 74.5497 6.67238L74.0217 6.52838C73.5897 6.24038 73.6857 5.04038 74.1657 4.84838C75.5577 4.94438 76.8057 4.99238 78.5337 4.99238C79.7337 4.99238 80.9817 4.94438 82.1817 4.84838C82.6617 4.99238 82.7097 6.24038 82.2777 6.52838ZM97.2541 7.58438H92.9341C92.3101 7.58438 92.2621 7.63238 92.2621 8.68838V15.8884C92.2621 18.5764 92.2621 21.5524 95.6221 21.5524C96.2941 21.5524 97.0621 21.2164 97.6381 20.8324C98.1181 20.9764 98.4061 21.5044 98.3101 22.0804C96.9661 23.5204 94.3741 24.8644 91.3981 24.8644C87.4141 24.8644 86.0221 22.5604 86.0221 19.3924V8.68838C86.0221 7.68038 85.9741 7.58438 85.1101 7.58438H83.6221C83.0941 7.39238 82.9501 6.43238 83.3341 6.09638C84.8221 5.56838 86.1661 4.70438 87.3181 3.93638C88.1821 3.31238 89.3821 2.30438 90.8701 0.192383C91.2061 0.000382423 92.0701 0.0483818 92.3101 0.432381V4.03238C92.3101 4.94438 92.3581 4.99238 93.2221 4.99238H97.4941C97.7341 5.18438 97.8781 5.47238 97.8781 5.90438C97.8781 6.43238 97.7341 7.29638 97.2541 7.58438Z"/>
</svg>
