<svg width="604" height="604" viewBox="0 0 604 604" fill="none" xmlns="http://www.w3.org/2000/svg">
<rect width="604" height="604" rx="138" fill="#EEEEEE"/>
<path d="M186.68 277.31L183.834 277.717C177.939 278.531 174.89 279.344 171.637 281.378C168.791 283.208 161.067 291.75 156.391 297.648C153.952 300.902 152.529 302.732 152.529 303.749C152.529 304.97 154.968 309.037 156.798 311.681L170.621 332.222C177.736 342.797 181.801 344.831 188.713 345.441L190.949 345.645C192.575 347.068 192.575 351.949 190.339 352.763C181.395 352.356 173.467 352.153 165.742 352.153C157.611 352.153 148.057 352.356 138.706 352.763C136.877 351.949 136.47 347.068 138.096 345.645L142.568 344.831C145.414 344.221 146.024 343.408 146.024 342.594C146.024 341.781 145.211 339.747 143.585 337.103C140.739 332.629 138.096 328.358 134.844 323.68C131.998 327.951 129.152 332.629 126.509 337.103C124.883 339.95 124.07 341.781 124.07 343.001C124.07 344.018 124.883 344.424 127.729 345.035L130.982 345.645C132.608 346.865 132.201 351.949 130.575 352.763C124.68 352.356 118.581 352.153 112.28 352.153C107.604 352.153 102.726 352.356 96.4241 352.763C94.5946 351.746 93.9847 347.272 96.0175 345.645L101.099 344.831C104.555 344.221 108.824 342.797 110.654 340.764C113.703 337.713 124.477 323.68 127.322 319.409C128.542 317.375 129.152 315.952 129.152 314.935C129.152 314.121 127.322 311.478 122.647 304.156L111.67 287.276C107.604 280.971 103.742 279.344 99.27 278.327L95.0011 277.31C93.5782 276.294 93.5782 270.802 95.611 270.192C103.539 270.599 109.027 270.802 120.208 270.802C127.526 270.802 134.641 270.599 141.959 270.192C144.398 271.006 144.601 276.09 142.365 277.31L139.926 277.921C138.3 278.124 136.877 278.734 136.877 279.344C136.877 280.158 137.283 281.175 138.706 283.615C141.349 288.089 144.195 291.953 147.041 296.021C149.073 293.174 152.529 288.293 155.782 283.412C157.001 281.581 157.204 280.768 157.204 279.751C157.204 278.937 155.985 278.531 153.952 277.921L151.716 277.31C149.886 276.09 150.293 271.006 152.326 270.192C158.221 270.599 163.506 270.802 170.824 270.802C175.906 270.802 181.191 270.599 186.273 270.192C188.306 270.802 188.509 276.09 186.68 277.31Z" fill="#111111"/>
<path d="M260.122 303.953H221.093C216.417 303.953 216.011 304.359 216.011 307.613C216.011 322.867 225.768 337.713 244.673 337.713C250.365 337.713 258.09 336.493 263.578 327.138C265.814 326.731 268.863 328.358 268.863 331.815C260.529 349.102 245.486 355 233.29 355C205.847 355 191.008 335.679 191.008 313.511C191.008 287.886 209.506 267.955 234.916 267.955C256.057 267.955 267.44 281.581 267.44 297.241C267.44 301.105 266.424 303.953 260.122 303.953ZM226.988 295.004H234.509C237.355 295.004 240.608 294.597 242.844 293.174C243.86 292.564 244.267 290.53 244.267 288.496C244.267 281.785 240.404 277.31 233.493 277.31C224.955 277.31 217.637 285.445 217.637 291.953C217.637 294.801 220.483 295.004 226.988 295.004Z" fill="#111111"/>
<path d="M343.451 303.953H304.421C299.746 303.953 299.339 304.359 299.339 307.613C299.339 322.867 309.097 337.713 328.002 337.713C333.694 337.713 341.418 336.493 346.907 327.138C349.143 326.731 352.192 328.358 352.192 331.815C343.857 349.102 328.815 355 316.618 355C289.175 355 274.336 335.679 274.336 313.511C274.336 287.886 292.834 267.955 318.244 267.955C339.385 267.955 350.769 281.581 350.769 297.241C350.769 301.105 349.753 303.953 343.451 303.953ZM310.316 295.004H317.838C320.684 295.004 323.936 294.597 326.172 293.174C327.189 292.564 327.595 290.53 327.595 288.496C327.595 281.785 323.733 277.31 316.821 277.31C308.284 277.31 300.966 285.445 300.966 291.953C300.966 294.801 303.812 295.004 310.316 295.004Z" fill="#111111"/>
<path d="M442.025 277.31L439.179 277.717C433.284 278.531 430.235 279.344 426.983 281.378C424.137 283.208 416.412 291.75 411.737 297.648C409.297 300.902 407.874 302.732 407.874 303.749C407.874 304.97 410.314 309.037 412.143 311.681L425.966 332.222C433.081 342.797 437.147 344.831 444.058 345.441L446.294 345.645C447.92 347.068 447.92 351.949 445.684 352.763C436.74 352.356 428.812 352.153 421.088 352.153C412.956 352.153 403.402 352.356 394.051 352.763C392.222 351.949 391.815 347.068 393.442 345.645L397.914 344.831C400.76 344.221 401.37 343.408 401.37 342.594C401.37 341.781 400.556 339.747 398.93 337.103C396.084 332.629 393.442 328.358 390.189 323.68C387.343 327.951 384.497 332.629 381.855 337.103C380.229 339.95 379.415 341.781 379.415 343.001C379.415 344.018 380.229 344.424 383.074 345.035L386.327 345.645C387.953 346.865 387.547 351.949 385.92 352.763C380.025 352.356 373.927 352.153 367.625 352.153C362.95 352.153 358.071 352.356 351.769 352.763C349.94 351.746 349.33 347.272 351.363 345.645L356.445 344.831C359.901 344.221 364.169 342.797 365.999 340.764C369.048 337.713 379.822 323.68 382.668 319.409C383.888 317.375 384.497 315.952 384.497 314.935C384.497 314.121 382.668 311.478 377.992 304.156L367.015 287.276C362.95 280.971 359.088 279.344 354.615 278.327L350.347 277.31C348.924 276.294 348.924 270.802 350.956 270.192C358.884 270.599 364.373 270.802 375.553 270.802C382.871 270.802 389.986 270.599 397.304 270.192C399.743 271.006 399.947 276.09 397.711 277.31L395.271 277.921C393.645 278.124 392.222 278.734 392.222 279.344C392.222 280.158 392.629 281.175 394.051 283.615C396.694 288.089 399.54 291.953 402.386 296.021C404.419 293.174 407.874 288.293 411.127 283.412C412.347 281.581 412.55 280.768 412.55 279.751C412.55 278.937 411.33 278.531 409.297 277.921L407.061 277.31C405.232 276.09 405.638 271.006 407.671 270.192C413.566 270.599 418.852 270.802 426.17 270.802C431.252 270.802 436.537 270.599 441.619 270.192C443.652 270.802 443.855 276.09 442.025 277.31Z" fill="#111111"/>
<path d="M505.45 281.785H487.155C484.512 281.785 484.309 281.988 484.309 286.462V316.969C484.309 328.358 484.309 340.967 498.538 340.967C501.384 340.967 504.637 339.543 507.076 337.916C509.109 338.527 510.329 340.764 509.922 343.204C504.23 349.305 493.253 355 480.65 355C463.778 355 457.883 345.238 457.883 331.815V286.462C457.883 282.191 457.679 281.785 454.02 281.785H447.719C445.483 280.971 444.873 276.904 446.499 275.48C452.801 273.243 458.493 269.582 463.371 266.328C467.03 263.684 472.112 259.413 478.414 250.465C479.837 249.651 483.496 249.855 484.512 251.482V266.735C484.512 270.599 484.716 270.802 488.375 270.802H506.466C507.483 271.616 508.093 272.836 508.093 274.667C508.093 276.904 507.483 280.564 505.45 281.785Z" fill="#111111"/>
</svg>
